<svg width="20" height="20" viewBox="0 0 20 20" fill="none" xmlns="http://www.w3.org/2000/svg">
<path d="M10.147 2.02201C10.0722 1.999 9.99307 1.99387 9.91593 2.00703C9.8388 2.02018 9.76583 2.05126 9.70289 2.09776C9.63996 2.14425 9.58881 2.20487 9.55358 2.27473C9.51834 2.3446 9.49999 2.42176 9.5 2.50001V12.405C8.95393 11.8811 8.24214 11.5642 7.48741 11.5089C6.73268 11.4536 5.98231 11.6634 5.36573 12.1022C4.74914 12.5409 4.30499 13.1811 4.10988 13.9123C3.91477 14.6434 3.98093 15.4198 4.29694 16.1074C4.61296 16.795 5.15902 17.3508 5.84095 17.6789C6.52289 18.007 7.29794 18.0868 8.03243 17.9046C8.76693 17.7224 9.41482 17.2896 9.86438 16.6809C10.3139 16.0721 10.537 15.3256 10.495 14.57C10.4983 14.5468 10.5 14.5234 10.5 14.5V7.17701L16.353 8.97701C16.4277 8.99999 16.5068 9.00513 16.5838 8.99203C16.6609 8.97892 16.7338 8.94794 16.7967 8.90155C16.8596 8.85517 16.9108 8.79468 16.9461 8.72495C16.9814 8.65521 16.9999 8.57817 17 8.50001V5.97701C17.0001 5.44225 16.8287 4.92154 16.5111 4.49137C16.1934 4.0612 15.7461 3.74423 15.235 3.58701L10.147 2.02201V2.02201Z" fill="#FF6E4D"/>
</svg>
